<svg width="34" height="34" viewBox="0 0 34 34" fill="none" xmlns="http://www.w3.org/2000/svg">
<path d="M32.5834 26.9167C32.5834 27.6681 32.2849 28.3888 31.7535 28.9201C31.2222 29.4515 30.5015 29.75 29.7501 29.75H4.25008C3.49863 29.75 2.77797 29.4515 2.24661 28.9201C1.71526 28.3888 1.41675 27.6681 1.41675 26.9167V11.3333C1.41675 10.5819 1.71526 9.86122 2.24661 9.32986C2.77797 8.79851 3.49863 8.5 4.25008 8.5H9.91675L12.7501 4.25H21.2501L24.0834 8.5H29.7501C30.5015 8.5 31.2222 8.79851 31.7535 9.32986C32.2849 9.86122 32.5834 10.5819 32.5834 11.3333V26.9167Z" stroke="currentColor" stroke-width="2" stroke-linecap="round" stroke-linejoin="round"/>
<path d="M16.9999 24.0833C20.1295 24.0833 22.6666 21.5463 22.6666 18.4167C22.6666 15.2871 20.1295 12.75 16.9999 12.75C13.8703 12.75 11.3333 15.2871 11.3333 18.4167C11.3333 21.5463 13.8703 24.0833 16.9999 24.0833Z" stroke="currentColor" stroke-width="2" stroke-linecap="round" stroke-linejoin="round"/>
</svg>
