<svg width="24" height="24" viewBox="0 0 24 24" fill="none" xmlns="http://www.w3.org/2000/svg">
<path  d="M2.5 21.5C1.94772 21.5 1.5 21.0523 1.5 20.5V9.04131C1.5 8.38868 1.81842 7.7771 2.35308 7.40285L10.3531 1.80285C11.0417 1.3208 11.9583 1.3208 12.6469 1.80285L20.6469 7.40285C21.1816 7.7771 21.5 8.38868 21.5 9.04131V20.5C21.5 21.0523 21.0523 21.5 20.5 21.5H16.5C15.9477 21.5 15.5 21.0523 15.5 20.5V16C15.5 14.8954 14.6046 14 13.5 14H9.5C8.39543 14 7.5 14.8954 7.5 16V20.5C7.5 21.0523 7.05228 21.5 6.5 21.5H2.5Z" />
<path d="M10.3531 1.80285L9.77961 0.983616L10.3531 1.80285ZM2.35308 7.40285L1.77961 6.58362L2.35308 7.40285ZM20.6469 7.40285L20.0735 8.22208L20.6469 7.40285ZM2.5 20.5V9.04131H0.5V20.5H2.5ZM2.92654 8.22208L10.9265 2.62208L9.77961 0.983616L1.77961 6.58362L2.92654 8.22208ZM12.0735 2.62208L20.0735 8.22208L21.2204 6.58361L13.2204 0.983615L12.0735 2.62208ZM20.5 9.04131V20.5H22.5V9.04131H20.5ZM6.5 20.5H2.5V22.5H6.5V20.5ZM6.5 16V20.5H8.5V16H6.5ZM20.5 20.5H16.5V22.5H20.5V20.5ZM16.5 20.5V16H14.5V20.5H16.5ZM13.5 13H9.5V15H13.5V13ZM16.5 16C16.5 14.3431 15.1569 13 13.5 13V15C14.0523 15 14.5 15.4477 14.5 16H16.5ZM16.5 20.5L16.5 20.5H14.5C14.5 21.6046 15.3954 22.5 16.5 22.5V20.5ZM8.5 16C8.5 15.4477 8.94772 15 9.5 15V13C7.84315 13 6.5 14.3431 6.5 16H8.5ZM6.5 22.5C7.60457 22.5 8.5 21.6046 8.5 20.5H6.5L6.5 20.5V22.5ZM20.5 20.5L20.5 20.5V22.5C21.6046 22.5 22.5 21.6046 22.5 20.5H20.5ZM10.9265 2.62208C11.2709 2.38106 11.7291 2.38106 12.0735 2.62208L13.2204 0.983615C12.1874 0.260543 10.8126 0.260544 9.77961 0.983616L10.9265 2.62208ZM2.5 9.04131C2.5 8.715 2.65921 8.40921 2.92654 8.22208L1.77961 6.58362C0.977633 7.145 0.5 8.06237 0.5 9.04131H2.5ZM0.5 20.5C0.5 21.6046 1.39543 22.5 2.5 22.5V20.5L2.5 20.5H0.5ZM20.0735 8.22208C20.3408 8.40921 20.5 8.715 20.5 9.04131H22.5C22.5 8.06237 22.0224 7.145 21.2204 6.58361L20.0735 8.22208Z" fill="currentColor"/>
</svg>
