<svg width="24" height="24" viewBox="0 0 24 24" fill="none" xmlns="http://www.w3.org/2000/svg">
<path d="M3 22.5C2.44772 22.5 2 22.0523 2 21.5V10.0413C2 9.38868 2.31842 8.7771 2.85308 8.40285L10.8531 2.80285C11.5417 2.3208 12.4583 2.3208 13.1469 2.80285L21.1469 8.40285C21.6816 8.7771 22 9.38868 22 10.0413V21.5C22 22.0523 21.5523 22.5 21 22.5H17C16.4477 22.5 16 22.0523 16 21.5V17C16 15.8954 15.1046 15 14 15H10C8.89543 15 8 15.8954 8 17V21.5C8 22.0523 7.55228 22.5 7 22.5H3Z" fill="currentColor" stroke="currentColor" stroke-width="2" stroke-linecap="round" stroke-linejoin="round"/>
</svg>
