<svg width="25" height="25" viewBox="0 0 25 25" fill="none" xmlns="http://www.w3.org/2000/svg">
<path d="M17.3497 3.73431C17.6124 3.47167 17.9242 3.26333 18.2673 3.12118C18.6105 2.97904 18.9783 2.90588 19.3497 2.90588C19.7211 2.90588 20.0889 2.97904 20.4321 3.12118C20.7753 3.26333 21.0871 3.47167 21.3497 3.73431C21.6124 3.99695 21.8207 4.30876 21.9628 4.65192C22.105 4.99508 22.1781 5.36288 22.1781 5.73431C22.1781 6.10575 22.105 6.47354 21.9628 6.8167C21.8207 7.15986 21.6124 7.47167 21.3497 7.73431L7.84971 21.2343L2.34971 22.7343L3.84971 17.2343L17.3497 3.73431Z" stroke="currentColor" stroke-width="2" stroke-linecap="round" stroke-linejoin="round"/>
</svg>
