<svg width="24" height="24" viewBox="0 0 24 24" fill="none" xmlns="http://www.w3.org/2000/svg">
<mask id="path-1-inside-1_162_326" fill="white">
<path d="M18.6667 6.26087C18.6667 9.71865 15.6819 12.5217 12 12.5217C8.3181 12.5217 5.33333 9.71865 5.33333 6.26087C5.33333 2.80309 8.3181 0 12 0C15.6819 0 18.6667 2.80309 18.6667 6.26087Z"/>
<path d="M22 19.3043C22 16.711 17.5228 14.6087 12 14.6087C6.47715 14.6087 2 16.711 2 19.3043C2 21.8977 2 24 12 24C22 24 22 21.8977 22 19.3043Z"/>
</mask>
<path d="M16.6667 6.26087C16.6667 8.49762 14.6975 10.5217 12 10.5217V14.5217C16.6663 14.5217 20.6667 10.9397 20.6667 6.26087H16.6667ZM12 10.5217C9.30249 10.5217 7.33333 8.49762 7.33333 6.26087H3.33333C3.33333 10.9397 7.33371 14.5217 12 14.5217V10.5217ZM7.33333 6.26087C7.33333 4.02412 9.30249 2 12 2V-2C7.33371 -2 3.33333 1.58205 3.33333 6.26087H7.33333ZM12 2C14.6975 2 16.6667 4.02412 16.6667 6.26087H20.6667C20.6667 1.58205 16.6663 -2 12 -2V2ZM24 19.3043C24 16.7756 21.8934 15.0998 19.9211 14.1737C17.7906 13.1732 14.9879 12.6087 12 12.6087V16.6087C14.535 16.6087 16.7323 17.0953 18.221 17.7944C19.868 18.5677 20 19.2397 20 19.3043H24ZM12 12.6087C9.01214 12.6087 6.20941 13.1732 4.07885 14.1737C2.10657 15.0998 0 16.7756 0 19.3043H4C4 19.2397 4.132 18.5677 5.77901 17.7944C7.26774 17.0953 9.46501 16.6087 12 16.6087V12.6087ZM0 19.3043C0 19.8898 -0.0135267 20.7946 0.229391 21.668C0.505241 22.6598 1.08762 23.5731 2.12561 24.2787C3.0873 24.9324 4.3438 25.3425 5.88554 25.603C7.44516 25.8666 9.44307 26 12 26V22C9.55693 22 7.80484 21.8706 6.55197 21.6589C5.2812 21.4442 4.6627 21.1667 4.37439 20.9707C4.16238 20.8265 4.11976 20.728 4.08311 20.5962C4.01353 20.346 4 20.0156 4 19.3043H0ZM12 26C14.5569 26 16.5548 25.8666 18.1145 25.603C19.6562 25.3425 20.9127 24.9324 21.8744 24.2787C22.9124 23.5731 23.4948 22.6598 23.7706 21.668C24.0135 20.7946 24 19.8898 24 19.3043H20C20 20.0156 19.9865 20.346 19.9169 20.5962C19.8802 20.728 19.8376 20.8265 19.6256 20.9707C19.3373 21.1667 18.7188 21.4442 17.448 21.6589C16.1952 21.8706 14.4431 22 12 22V26Z" fill="currentColor" mask="url(#path-1-inside-1_162_326)"/>
</svg>
