<svg width="40" height="40" viewBox="0 0 40 40" fill="none" xmlns="http://www.w3.org/2000/svg">
<rect width="40" height="40" rx="20" fill="#090900"/>
<path d="M15.075 15.7648C15.4847 15.2717 15.6877 14.6393 15.6416 14C15.0137 14.0606 14.4341 14.3632 14.0257 14.8438C13.8223 15.074 13.6664 15.342 13.5669 15.6326C13.4675 15.9232 13.4265 16.2306 13.4462 16.5371C13.759 16.5433 14.0689 16.4767 14.3516 16.3427C14.6342 16.2086 14.8819 16.0108 15.075 15.7648ZM15.6029 16.6536C14.7016 16.6015 13.942 17.1685 13.5106 17.1685C13.0793 17.1685 12.4226 16.6819 11.7145 16.6948C11.2508 16.7079 10.7986 16.8424 10.4032 17.0849C10.0078 17.3273 9.68299 17.6693 9.4612 18.0766C8.49553 19.75 9.20369 22.2428 10.1436 23.6053C10.6007 24.2528 11.1479 25.0245 11.8754 24.9994C12.6029 24.9743 12.8282 24.5488 13.6587 24.5488C14.4892 24.5488 14.7338 24.9994 15.4549 24.9833C16.1759 24.9672 16.678 24.3345 17.1287 23.6317C17.4538 23.1516 17.7075 22.627 17.8819 22.0741C17.449 21.8825 17.0808 21.5699 16.8215 21.1739C16.5622 20.7779 16.423 20.3154 16.4205 19.8421C16.4259 19.4221 16.5365 19.0102 16.7423 18.6441C16.9482 18.278 17.2426 17.9694 17.5987 17.7465C17.3724 17.4231 17.0747 17.1562 16.7286 16.9664C16.3825 16.7767 15.9973 16.6692 15.6029 16.6523V16.6536ZM21.3519 15.3548V17.1923H22.8198V18.4055H21.3519V22.7531C21.3519 23.4019 21.6416 23.7327 22.2854 23.7327C22.462 23.7295 22.6382 23.7166 22.8133 23.6941V24.917C22.526 24.9635 22.2352 24.985 21.9442 24.9813C20.4249 24.9813 19.839 24.3911 19.839 22.9115V18.4345H18.6867V17.2181H19.8069V15.3561L21.3519 15.3548ZM27.9507 24.9144H26.3413L23.6374 17.2181H25.2404L27.1396 23.4019H27.1782L29.0774 17.2181H30.6482L27.9507 24.9144Z" fill="#F9F9F9"/>
</svg>
