<svg width="40" height="40" viewBox="0 0 40 40" fill="none" xmlns="http://www.w3.org/2000/svg">
<rect width="40" height="40" rx="20" fill="#1E2161"/>
<path d="M25.4412 20.2936C25.0435 20.3846 23.9968 20.437 23.9968 20.437L23.8642 20.8506C23.8642 20.8506 24.3862 20.8065 24.7673 20.8451C24.7673 20.8451 24.8916 20.8313 24.9054 20.9857C24.911 21.129 24.8944 21.2834 24.8944 21.2834C24.8944 21.2834 24.8861 21.3772 24.7535 21.3992C24.6099 21.4241 23.6267 21.4599 23.6267 21.4599L23.4665 21.9975C23.4665 21.9975 23.4085 22.1216 23.5411 22.0858C23.6654 22.0527 24.6955 21.8597 24.8309 21.8873C24.9745 21.9231 25.1347 22.1133 25.0877 22.2898C25.0325 22.5049 24.0051 23.1611 23.3781 23.1142C23.3781 23.1142 23.0495 23.1362 22.7705 22.6923C22.5109 22.2705 22.8699 21.4682 22.8699 21.4682C22.8699 21.4682 22.707 21.0932 22.8257 20.9691C22.8257 20.9691 22.8976 20.9057 23.1019 20.8892L23.3533 20.3681C23.3533 20.3681 23.066 20.3874 22.8948 20.1778C22.7346 19.9766 22.7236 19.8856 22.8451 19.8304C22.9749 19.767 24.1708 19.5492 24.9938 19.5768C24.9938 19.5768 25.281 19.5492 25.5268 20.0455C25.5241 20.0455 25.6456 20.2468 25.4412 20.2936V20.2936ZM22.3452 22.2953C22.2402 22.5435 21.9613 22.8081 21.6161 22.6427C21.2736 22.4773 20.7295 21.3662 20.7295 21.3662C20.7295 21.3662 20.5224 20.9526 20.4837 20.9609C20.4837 20.9609 20.4395 20.8809 20.4119 21.3331C20.3843 21.7852 20.4174 22.6648 20.2379 22.8026C20.0667 22.9405 19.8595 22.8853 19.7518 22.7227C19.6551 22.5628 19.6137 22.1823 19.6662 21.515C19.7297 20.8478 19.8844 20.1365 20.0832 19.9131C20.2821 19.6926 20.4423 19.8525 20.503 19.9104C20.503 19.9104 20.7682 20.1503 21.2073 20.8561L21.2846 20.9857C21.2846 20.9857 21.6823 21.6529 21.7238 21.6501C21.7238 21.6501 21.7569 21.6805 21.7845 21.6584C21.826 21.6474 21.8094 21.4323 21.8094 21.4323C21.8094 21.4323 21.7265 20.7072 21.3647 19.4775C21.3647 19.4775 21.3095 19.3231 21.3482 19.1797C21.3841 19.0336 21.5304 19.1025 21.5304 19.1025C21.5304 19.1025 22.0939 19.3838 22.3645 20.2991C22.6324 21.2228 22.4501 22.0472 22.3452 22.2953V22.2953ZM19.5778 19.9435C19.5309 20.0372 19.5032 20.1723 19.2657 20.2082C19.2657 20.2082 16.9927 20.3626 16.885 20.5225C16.885 20.5225 16.8049 20.6162 16.9292 20.6438C17.0535 20.6686 17.5672 20.7375 17.8157 20.7513C18.0809 20.7541 18.9757 20.7623 19.2961 21.1621C19.2961 21.1621 19.4867 21.3524 19.4784 21.7825C19.4701 22.2236 19.3928 22.378 19.2215 22.5379C19.042 22.6868 17.5009 23.3761 16.5066 22.3174C16.5066 22.3174 16.0482 21.8073 16.664 21.4213C16.664 21.4213 17.1087 21.1539 18.2383 21.4682C18.2383 21.4682 18.5808 21.5922 18.5642 21.7163C18.5449 21.8487 18.2825 21.9893 17.9014 21.981C17.5313 21.97 17.2606 21.7935 17.3131 21.8211C17.3628 21.8404 16.9154 21.606 16.7773 21.7659C16.6392 21.9121 16.6723 22.0031 16.8077 22.094C17.1529 22.2898 18.4869 22.2209 18.8846 21.7797C18.8846 21.7797 19.042 21.6005 18.8017 21.4544C18.5614 21.3165 17.8737 21.2338 17.6058 21.22C17.349 21.2062 16.3934 21.2228 16.2553 20.9691C16.2553 20.9691 16.1172 20.7982 16.2691 20.3129C16.4293 19.8056 17.5423 19.6099 18.0229 19.5657C18.0229 19.5657 19.3458 19.5189 19.5889 19.7891C19.5861 19.7891 19.6192 19.8525 19.5778 19.9435V19.9435ZM15.8217 22.9184C15.6615 23.037 15.3218 22.9846 15.2251 22.8523C15.1285 22.7337 15.0953 22.2622 15.1146 21.5233C15.134 20.7761 15.1505 19.8497 15.3107 19.7036C15.482 19.5547 15.5869 19.6843 15.6532 19.7863C15.725 19.8856 15.8106 19.9959 15.83 20.2302C15.8465 20.4646 15.9018 21.6943 15.9018 21.6943C15.9018 21.6943 15.9736 22.8026 15.8217 22.9184ZM16.1669 18.9536C15.7002 19.108 15.3798 19.0557 15.1091 18.9399C14.9904 19.1466 14.9213 19.2101 14.8302 19.2239C14.6976 19.2376 14.5788 19.0253 14.5567 18.9564C14.5347 18.904 14.4711 18.8158 14.5485 18.6062C14.2833 18.3691 14.264 18.0493 14.3082 17.8342C14.3745 17.5861 14.8219 16.6432 16.1835 16.5329C16.1835 16.5329 16.8491 16.4832 16.9623 16.8389H16.9817C16.9817 16.8389 17.6279 16.8417 17.6141 17.4152C17.6058 17.9914 16.896 18.7083 16.1669 18.9536V18.9536ZM14.8965 17.6771C14.7584 17.8977 14.7528 18.03 14.8164 18.121C14.9738 17.8811 15.261 17.5034 15.6836 17.2166C15.3577 17.2442 15.0843 17.3848 14.8965 17.6771V17.6771ZM16.7773 17.3076C16.3492 17.371 15.6863 17.9445 15.3715 18.4132C15.8548 18.5015 16.7082 18.4684 17.0866 17.6991C17.0838 17.6991 17.2661 17.2222 16.7773 17.3076ZM28.3992 21.7494C28.1423 22.1961 27.4215 23.128 26.4604 22.9102C26.1427 23.6794 25.8776 24.4542 25.7257 25.6177C25.7257 25.6177 25.6926 25.8438 25.5047 25.7638C25.3197 25.6976 25.0104 25.3888 24.9496 24.9615C24.8833 24.399 25.1347 23.4478 25.6456 22.3587C25.4965 22.1161 25.3943 21.7687 25.4827 21.2752C25.4827 21.2752 25.6125 20.3598 26.5322 19.5327C26.5322 19.5327 26.6426 19.4362 26.7062 19.4665C26.778 19.4968 26.7448 19.7946 26.6868 19.938C26.6288 20.0813 26.2173 20.7927 26.2173 20.7927C26.2173 20.7927 25.9605 21.2724 26.0323 21.6501C26.5156 20.9085 27.6148 19.4113 28.297 19.8828C28.5262 20.0455 28.6312 20.4012 28.6312 20.7844C28.6284 21.1235 28.5483 21.482 28.3992 21.7494V21.7494ZM28.2003 20.5749C28.2003 20.5749 28.1617 20.2798 27.8744 20.6052C27.6259 20.8781 27.1784 21.3937 26.8166 22.0913C27.195 22.0499 27.5596 21.8431 27.67 21.7384C27.8496 21.5785 28.2666 21.1483 28.2003 20.5749V20.5749ZM14.7915 20.9498C14.739 21.6171 14.4822 22.7392 12.6621 23.2934C11.4607 23.6546 10.3256 23.4809 9.70693 23.3237C9.69312 23.5691 9.6655 23.6739 9.62683 23.7152C9.57436 23.7676 9.18217 23.9937 8.96675 23.6739C8.87008 23.5222 8.82037 23.2465 8.79275 23.0011C7.40078 22.3615 6.76003 21.4406 6.73517 21.3992C6.70479 21.3689 6.38718 21.0381 6.70479 20.6328C7.00307 20.2661 7.978 19.8994 8.85628 19.7505C8.88666 19.0005 8.97504 18.4353 9.07999 18.1761C9.20703 17.8756 9.36722 18.1458 9.50531 18.3498C9.62131 18.5015 9.69036 19.1549 9.69588 19.676C10.2703 19.6485 10.6101 19.6898 11.2508 19.8056C12.0849 19.9573 12.6428 20.3819 12.5931 20.8644C12.5572 21.3386 12.1208 21.5343 11.9551 21.5481C11.7811 21.5619 11.5104 21.4378 11.5104 21.4378C11.3254 21.3496 11.4966 21.2724 11.7203 21.1759C11.9634 21.0574 11.9081 20.936 11.9081 20.936C11.817 20.6714 10.7343 20.4866 9.65721 20.4866C9.65169 21.0794 9.68207 22.0637 9.69588 22.6372C10.4499 22.7806 11.0133 22.753 11.0133 22.753C11.0133 22.753 13.7641 22.6758 13.847 20.9223C13.9326 19.1659 11.1044 17.4813 9.0137 16.9464C6.92574 16.4005 5.74366 16.781 5.64147 16.8334C5.531 16.8885 5.63319 16.9051 5.63319 16.9051C5.63319 16.9051 5.74642 16.9216 5.94252 16.9878C6.14966 17.054 5.98947 17.1615 5.98947 17.1615C5.63319 17.2745 5.23272 17.2029 5.15539 17.0402C5.07805 16.8775 5.20786 16.7314 5.357 16.5218C5.50614 16.3013 5.66909 16.3095 5.66909 16.3095C8.25143 15.4162 11.3972 17.0319 11.3972 17.0319C14.3441 18.5235 14.8467 20.2716 14.7915 20.9498V20.9498ZM6.99755 20.8588C6.70479 21.0022 6.9064 21.209 6.9064 21.209C7.45601 21.799 8.13267 22.1685 8.77618 22.3973C8.85075 21.3799 8.8397 21.0215 8.84799 20.5087C7.84267 20.5776 7.26268 20.7375 6.99755 20.8588V20.8588Z" fill="white"/>
<path d="M33.8677 20.6494V21.0133C33.8677 21.0933 33.8041 21.1567 33.7241 21.1567H31.9868C31.9868 21.2477 31.9896 21.3276 31.9896 21.4021C31.9896 21.9397 31.9675 22.3781 31.915 22.8716C31.9067 22.9461 31.846 23.0012 31.7742 23.0012H31.3986C31.3599 23.0012 31.324 22.9847 31.2991 22.9571C31.2743 22.9295 31.2605 22.8909 31.266 22.8523C31.3185 22.3616 31.3433 21.9287 31.3433 21.4021C31.3433 21.3249 31.3433 21.2449 31.3406 21.1567H29.6227C29.5426 21.1567 29.4791 21.0933 29.4791 21.0133V20.6494C29.4791 20.5694 29.5426 20.506 29.6227 20.506H31.3157C31.2798 19.9132 31.208 19.3425 31.092 18.7635C31.0865 18.7276 31.0948 18.6918 31.1169 18.6642C31.1389 18.6367 31.1721 18.6201 31.208 18.6201H31.614C31.6775 18.6201 31.73 18.6642 31.7438 18.7276C31.857 19.3259 31.9288 19.9077 31.9647 20.506H33.7241C33.8014 20.506 33.8677 20.5722 33.8677 20.6494V20.6494Z" fill="white"/>
<path d="M31.5035 17.7626C30.6059 15.5596 29.0897 13.682 27.1177 12.331C25.0988 10.9496 22.7319 10.219 20.2738 10.219C16.2083 10.219 12.4357 12.2345 10.1847 15.612C10.1599 15.6478 10.1544 15.6947 10.1682 15.7361C10.182 15.7802 10.2151 15.8105 10.2565 15.8243L10.5714 15.9318C10.5907 15.9373 10.6101 15.9401 10.6266 15.9401C10.6846 15.9401 10.7399 15.9098 10.773 15.8629C11.8059 14.3465 13.2034 13.0864 14.8164 12.2152C16.4818 11.3163 18.3681 10.8394 20.271 10.8394C22.5717 10.8394 24.7894 11.5176 26.6896 12.7969C28.5428 14.0459 29.9817 15.7912 30.8517 17.8398C30.8766 17.9004 30.9373 17.9418 31.0036 17.9418H31.3792C31.4234 17.9418 31.4649 17.9197 31.4869 17.8839C31.5146 17.848 31.5201 17.8039 31.5035 17.7626ZM10.6266 15.8463C10.6183 15.8463 10.6101 15.8436 10.6018 15.8408C10.6101 15.8436 10.6183 15.8463 10.6266 15.8463ZM30.9263 17.8922C30.9346 17.8977 30.9429 17.9032 30.9512 17.9059C30.9429 17.9004 30.9346 17.8977 30.9263 17.8922Z" fill="url(#paint0_radial_221_861)"/>
<defs>
<radialGradient id="paint0_radial_221_861" cx="0" cy="0" r="1" gradientUnits="userSpaceOnUse" gradientTransform="translate(31.1507 17.9279) scale(20.9935 20.9578)">
<stop offset="0.007" stop-color="white"/>
<stop offset="0.03" stop-color="#CBFFFF"/>
<stop offset="0.057" stop-color="#96FFFF"/>
<stop offset="0.084" stop-color="#68FFFF"/>
<stop offset="0.111" stop-color="#43FFFF"/>
<stop offset="0.138" stop-color="#25FFFF"/>
<stop offset="0.165" stop-color="#11FFFF"/>
<stop offset="0.191" stop-color="#04FFFF"/>
<stop offset="0.216" stop-color="#00FFFF"/>
<stop offset="1" stop-color="#0000FF" stop-opacity="0"/>
</radialGradient>
</defs>
</svg>
