<svg width="40" height="40" viewBox="0 0 40 40" fill="none" xmlns="http://www.w3.org/2000/svg">
<rect width="40" height="40" rx="20" fill="url(#paint0_linear_221_955)"/>
<path d="M10.5674 20.2375C9.8384 20.2562 9.1231 20.0405 8.53021 19.6233C8.32649 19.4588 8.28742 19.3327 8.39905 19.1325C8.47719 18.9899 8.54695 18.8419 8.61951 18.702C8.74789 18.4498 8.87068 18.4059 9.12463 18.554C9.59281 18.8433 10.1372 18.9911 10.6902 18.979C11.586 18.9515 11.9237 18.4032 11.907 17.6546C11.7438 17.8197 11.5458 17.9478 11.327 18.0297C11.1081 18.1117 10.8736 18.1455 10.64 18.129C10.1387 18.1221 9.6516 17.9642 9.24463 17.6765C8.88257 17.4227 8.60245 17.0719 8.43769 16.6659C8.27292 16.26 8.23044 15.816 8.31533 15.387C8.36637 14.9117 8.56356 14.463 8.88063 14.1005C9.1977 13.738 9.61961 13.479 10.0902 13.358C10.4247 13.2524 10.7827 13.2419 11.123 13.3278C11.4632 13.4137 11.7718 13.5924 12.013 13.8433C12.013 13.6267 12.0297 13.4896 12.1218 13.4183C12.2624 13.359 12.4162 13.3364 12.5683 13.3525C13.2828 13.3525 13.266 13.3251 13.2604 13.8104C13.2604 14.8194 13.2604 16.2782 13.2604 17.2735C13.2604 18.5869 12.839 20.2375 10.5674 20.2375ZM11.9628 15.749C11.975 15.5901 11.9539 15.4305 11.9006 15.2801C11.8473 15.1296 11.7631 14.9916 11.6531 14.8745C11.5431 14.7575 11.4098 14.6639 11.2614 14.5997C11.113 14.5355 10.9528 14.5021 10.7907 14.5014C10.6249 14.4935 10.4593 14.5204 10.305 14.5802C10.1506 14.6401 10.0109 14.7315 9.89531 14.8485C9.77969 14.9655 9.69073 15.1053 9.63436 15.2587C9.57798 15.412 9.55548 15.5754 9.56835 15.738C9.56835 16.5414 10.0846 16.9938 10.7851 16.9993C10.9478 16.9999 11.1089 16.9672 11.2581 16.9032C11.4073 16.8393 11.5413 16.7455 11.6515 16.6279C11.7618 16.5103 11.8459 16.3714 11.8985 16.22C11.9512 16.0687 11.9711 15.9083 11.9572 15.749H11.9628Z" fill="white"/>
<path d="M22.6372 13.7802C22.9825 13.4641 23.435 13.2853 23.907 13.2785C24.2629 13.2791 24.6139 13.3606 24.9324 13.5166C25.251 13.6727 25.5285 13.8989 25.7433 14.1778C26.4326 15.0004 26.4381 16.6182 25.6763 17.4298C25.4913 17.6557 25.2614 17.8422 25.0006 17.9778C24.7397 18.1134 24.4534 18.1953 24.1592 18.2184C23.8651 18.2415 23.5692 18.2054 23.2897 18.1122C23.0102 18.019 22.7531 17.8708 22.534 17.6765C22.5005 17.6491 22.534 17.9507 22.467 18.0357C22.3861 18.1893 21.4456 18.1783 21.3507 18.0357C21.3134 17.9647 21.2961 17.8852 21.3005 17.8054C21.3005 15.7928 21.3005 13.7199 21.3005 11.7073C21.3005 11.4633 21.4093 11.3646 21.6493 11.3701C21.8893 11.3756 22.054 11.3865 22.2605 11.3701C22.5395 11.3701 22.6149 11.4853 22.6149 11.7293C22.6205 12.3188 22.6316 13.7583 22.6372 13.7802ZM23.7814 14.5069C23.1144 14.5069 22.6037 14.9922 22.587 15.749C22.5747 15.9097 22.5962 16.0712 22.6501 16.2235C22.704 16.3757 22.7891 16.5155 22.9003 16.634C23.0115 16.7526 23.1462 16.8474 23.2963 16.9127C23.4463 16.9779 23.6084 17.0122 23.7724 17.0133C23.9365 17.0144 24.099 16.9824 24.25 16.9192C24.4009 16.8561 24.5371 16.7631 24.6499 16.6461C24.7627 16.5291 24.8499 16.3905 24.906 16.239C24.962 16.0875 24.9858 15.9263 24.9758 15.7654C24.9886 15.6041 24.9671 15.442 24.9127 15.2893C24.8584 15.1366 24.7723 14.9966 24.66 14.8783C24.5477 14.76 24.4117 14.6659 24.2604 14.6019C24.1092 14.538 23.946 14.5056 23.7814 14.5069V14.5069Z" fill="white"/>
<path d="M20.7451 15.7435C20.7529 16.072 20.6934 16.3986 20.5702 16.7041C20.4469 17.0095 20.2624 17.2875 20.0277 17.5214C19.7929 17.7554 19.5127 17.9406 19.2036 18.0661C18.8946 18.1916 18.563 18.2547 18.2286 18.2518C17.8942 18.2488 17.5638 18.1799 17.2571 18.049C16.9504 17.9181 16.6736 17.728 16.4431 17.4899C16.2127 17.2518 16.0333 16.9707 15.9156 16.6631C15.7979 16.3556 15.7444 16.0279 15.7582 15.6997C15.767 15.0526 16.0361 14.4354 16.5067 13.9827C16.9774 13.5301 17.6112 13.2789 18.2698 13.284C18.5977 13.2821 18.9228 13.3447 19.2258 13.468C19.5288 13.5912 19.8037 13.7728 20.0343 14.0019C20.2649 14.231 20.4466 14.5031 20.5686 14.8022C20.6907 15.1013 20.7507 15.4213 20.7451 15.7435ZM19.4419 15.7984C19.4525 15.64 19.4307 15.4812 19.3779 15.3312C19.3251 15.1813 19.2423 15.0432 19.1344 14.9251C19.0264 14.8071 18.8956 14.7114 18.7495 14.6438C18.6033 14.5761 18.4449 14.5379 18.2836 14.5313C18.1222 14.5248 17.9611 14.5499 17.8098 14.6054C17.6585 14.6609 17.52 14.7456 17.4025 14.8545C17.285 14.9633 17.1908 15.0942 17.1255 15.2393C17.0602 15.3845 17.0251 15.541 17.0223 15.6997C17.0099 15.8653 17.0313 16.0316 17.0854 16.189C17.1395 16.3463 17.2251 16.4913 17.3372 16.6156C17.4494 16.7398 17.5857 16.8407 17.7382 16.9123C17.8907 16.9838 18.0563 17.0246 18.2251 17.0322C18.3878 17.0308 18.5486 16.9977 18.6981 16.9347C18.8477 16.8717 18.983 16.7801 19.0962 16.6653C19.2094 16.5505 19.2982 16.4148 19.3576 16.2659C19.4169 16.1171 19.4456 15.9582 19.4419 15.7984Z" fill="white"/>
<path d="M26.7898 15.7379C26.7994 15.0907 27.0703 14.4738 27.5429 14.0228C28.0155 13.5719 28.651 13.3238 29.3098 13.3333C29.9685 13.3427 30.5964 13.6089 31.0554 14.0732C31.5144 14.5376 31.7668 15.162 31.7572 15.8092C31.7524 16.1297 31.6835 16.4461 31.5543 16.7404C31.425 17.0347 31.2381 17.3011 31.0041 17.5244C30.7701 17.7477 30.4936 17.9235 30.1904 18.0418C29.8873 18.1601 29.5634 18.2186 29.2372 18.2139C28.5785 18.2045 27.9506 17.9383 27.4916 17.474C27.0326 17.0096 26.7801 16.3852 26.7898 15.7379ZM30.4763 15.7379C30.4854 15.5736 30.4594 15.4093 30.4 15.2555C30.3406 15.1016 30.249 14.9617 30.1313 14.8447C30.0135 14.7277 29.8721 14.6362 29.7162 14.5762C29.5603 14.5161 29.3933 14.4887 29.226 14.4958C29.0569 14.5027 28.8909 14.5437 28.7386 14.6163C28.5862 14.6889 28.4507 14.7916 28.3405 14.9179C28.2303 15.0442 28.1477 15.1914 28.0979 15.3504C28.0482 15.5094 28.0322 15.6768 28.0512 15.8421C28.0606 16.1619 28.197 16.4654 28.4311 16.6878C28.6652 16.9101 28.9786 17.0337 29.3042 17.0321C29.4682 17.026 29.6293 16.9874 29.7779 16.9187C29.9264 16.85 30.0593 16.7526 30.1687 16.6323C30.2781 16.512 30.3617 16.3713 30.4146 16.2186C30.4674 16.0659 30.4884 15.9043 30.4763 15.7434V15.7379Z" fill="white"/>
<path d="M13.8884 14.7784V11.6636C13.8884 11.2934 14.0391 11.1673 14.5051 11.3702C15.0438 11.6005 15.1833 11.6444 15.1833 12.0858C15.1833 13.7694 15.1833 15.6503 15.1665 17.3805C15.1665 17.7178 15.1833 17.8658 14.7591 18.0523C14.6726 18.0907 14.4996 18.1784 14.3712 18.225C14.1172 18.3292 13.8828 18.225 13.8884 17.8603C13.8884 17.131 13.8884 16.3989 13.8884 15.6668C13.8828 15.3871 13.8828 15.08 13.8884 14.7784Z" fill="white"/>
<path d="M26.7396 27.4214C26.5693 27.3337 26.6196 27.1472 26.7005 27.0074C26.7284 26.9525 26.7619 26.8977 26.7954 26.8429C27.0242 26.4069 27.0242 26.4014 27.4958 26.5111C27.6263 26.5552 27.7685 26.5518 27.8966 26.5015C28.0247 26.4511 28.1301 26.3572 28.1935 26.2369C28.3445 26.0031 28.4752 25.7573 28.5842 25.502C28.5842 25.502 27.3061 22.6395 26.7228 21.3233C26.5582 20.9532 26.5749 20.9312 26.9796 20.9312C27.2391 20.9312 27.4958 20.9312 27.7554 20.9312C27.8326 20.9211 27.9109 20.9397 27.9749 20.9833C28.0389 21.0269 28.084 21.0924 28.1014 21.167C28.4447 22.028 29.1898 23.909 29.1898 23.909C29.3321 23.5004 29.494 23.0864 29.6279 22.7135C29.8093 22.2008 30.0047 21.6935 30.1861 21.1753C30.2017 21.091 30.2507 21.0162 30.3224 20.9673C30.3941 20.9185 30.4826 20.8996 30.5684 20.9148C30.8056 20.9312 31.0456 20.9148 31.2884 20.9148C31.6177 20.9148 31.6735 21.0025 31.5507 21.3014C31.2717 22.028 30.9619 22.7574 30.6633 23.495C30.2949 24.3943 29.8261 25.4911 29.4633 26.385C29.2344 26.9333 28.6875 27.734 27.7889 27.734C27.4127 27.7536 27.0413 27.643 26.7396 27.4214V27.4214Z" fill="white"/>
<path d="M15.1219 25.2444C15.1219 25.9217 15.1219 26.5441 15.1219 27.1638C15.1219 27.6217 15.1219 27.6217 14.6391 27.6217C14.4716 27.6217 14.3042 27.6217 14.1395 27.6217C13.9219 27.6217 13.8605 27.523 13.8605 27.3256V21.2083C13.8605 21.0081 13.9386 20.9039 14.1563 20.9341C14.293 20.9341 14.5442 20.9341 14.6837 20.9341C15.0661 20.9341 15.0437 21.0438 15.0437 21.403C16.3805 20.1554 18.3535 21.0931 18.7079 22.6917C18.8525 23.2394 18.8036 23.8191 18.5695 24.3361C18.3353 24.8531 17.9296 25.2767 17.4186 25.5378C17.1074 25.7027 16.7559 25.78 16.4028 25.7612C16.0498 25.7423 15.7088 25.628 15.4177 25.4309C15.3256 25.3815 15.2558 25.3267 15.1219 25.2444ZM15.0995 23.2702C15.0893 23.4319 15.1126 23.5939 15.1679 23.7464C15.2232 23.899 15.3094 24.039 15.4213 24.1579C15.5332 24.2768 15.6685 24.3722 15.8189 24.4383C15.9694 24.5044 16.1319 24.5398 16.2968 24.5425C16.4625 24.5449 16.6269 24.5133 16.7795 24.4497C16.932 24.3862 17.0695 24.292 17.1829 24.1733C17.2964 24.0546 17.3834 23.914 17.4384 23.7604C17.4934 23.6067 17.5152 23.4435 17.5023 23.2812C17.5023 22.5738 17.1088 22.061 16.3526 22.0336C16.1851 22.0244 16.0175 22.0502 15.8609 22.1091C15.7042 22.1681 15.5621 22.259 15.4437 22.3758C15.3254 22.4926 15.2335 22.6326 15.1742 22.7868C15.1149 22.941 15.0894 23.1057 15.0995 23.2702V23.2702Z" fill="white"/>
<path d="M24.9423 21.3618C25.0037 20.9204 24.9423 20.9149 25.4363 20.9204C25.587 20.9204 25.7153 20.9204 25.88 20.9204C26.1284 20.893 26.2065 21.0301 26.2065 21.2412V25.3321C26.2065 25.5625 26.106 25.6886 25.8521 25.6667C25.7237 25.6667 25.5898 25.6667 25.4642 25.6667C25.0205 25.6667 24.9311 25.6667 24.9311 25.1868C24.7688 25.3637 24.5709 25.5057 24.35 25.6039C24.1291 25.702 23.8899 25.7542 23.6474 25.7571C23.3811 25.7731 23.1142 25.7365 22.8626 25.6494C22.6109 25.5622 22.3796 25.4264 22.1823 25.2499C21.8727 24.9959 21.6275 24.6747 21.466 24.3117C21.3045 23.9486 21.2311 23.5536 21.2517 23.1579C21.2722 22.7621 21.3862 22.3765 21.5845 22.0315C21.7828 21.6865 22.0601 21.3915 22.3944 21.1699C22.7372 20.9318 23.149 20.8085 23.5688 20.8184C23.9885 20.8283 24.3938 20.9708 24.7246 21.2247L24.9423 21.3618ZM22.5535 23.2812C22.5535 24.0242 23.053 24.5754 23.7367 24.5589C23.9024 24.5586 24.0662 24.5248 24.2179 24.4595C24.3697 24.3942 24.5061 24.2989 24.6187 24.1796C24.7313 24.0602 24.8177 23.9193 24.8724 23.7657C24.9271 23.612 24.949 23.449 24.9367 23.2867C24.9442 23.1252 24.9186 22.9639 24.8612 22.8124C24.8039 22.6608 24.7161 22.5222 24.6031 22.4048C24.49 22.2873 24.3541 22.1934 24.2033 22.1287C24.0526 22.064 23.8901 22.0298 23.7256 22.0281C23.565 22.0323 23.407 22.068 23.2607 22.133C23.1143 22.1981 22.9827 22.2912 22.8735 22.4069C22.7644 22.5226 22.6798 22.6586 22.6248 22.8068C22.5699 22.9551 22.5456 23.1126 22.5535 23.2702V23.2812Z" fill="white"/>
<path d="M20.6614 22.3105C20.6614 23.3196 20.6614 24.3341 20.6614 25.3431C20.6614 25.5789 20.5721 25.6721 20.3405 25.6612C20.1369 25.6502 19.9329 25.6502 19.7293 25.6612C19.4502 25.6776 19.3637 25.5515 19.3637 25.3047V19.3492C19.3637 19.0065 19.4112 18.9571 19.7572 18.9517C19.9498 18.9517 20.1451 18.9517 20.3405 18.9517C20.5777 18.9517 20.6614 19.0449 20.6614 19.2725C20.6558 20.287 20.6614 21.3015 20.6614 22.3105Z" fill="white"/>
<defs>
<linearGradient id="paint0_linear_221_955" x1="4" y1="4" x2="38.5" y2="37" gradientUnits="userSpaceOnUse">
<stop stop-color="#F71636"/>
<stop offset="1" stop-color="#FD7714"/>
</linearGradient>
</defs>
</svg>
