<svg width="40" height="40" viewBox="0 0 40 40" fill="none" xmlns="http://www.w3.org/2000/svg">
<rect width="40" height="40" rx="20" fill="url(#paint0_linear_221_851)"/>
<path d="M17.7477 23.2518C17.7076 21.4825 16.4747 20.5482 14.9613 20.5482C14.1335 20.5482 13.3857 20.8281 12.8738 21.3787C12.3664 20.8326 11.6187 20.5482 10.7863 20.5482C9.27298 20.5482 8.04006 21.487 8 23.2563V27.3004C8 27.6705 8.29822 27.9684 8.65875 27.9684H9.28189C9.3442 27.9684 9.39316 27.9188 9.39316 27.8556V23.2653C9.41987 22.3942 10.0297 21.9339 10.7819 21.9339C11.5341 21.9339 12.1439 22.3942 12.1706 23.2653V27.2959C12.1706 27.666 12.4688 27.9639 12.8293 27.9639H13.4525C13.5148 27.9639 13.5637 27.9143 13.5637 27.8511V23.2608C13.5904 22.3897 14.2002 21.9293 14.9524 21.9293C15.7047 21.9293 16.3144 22.3897 16.3412 23.2608V27.2914C16.3412 27.6615 16.6394 27.9594 16.9999 27.9594H17.623C17.6853 27.9594 17.7343 27.9097 17.7343 27.8466L17.7477 23.2518C17.7521 23.2608 17.7477 23.2563 17.7477 23.2518V23.2518ZM31.8128 20.6656H30.7534C30.4597 20.6656 30.1882 20.8145 30.019 21.0628L28.8484 22.823C28.6926 23.0532 28.3633 23.0532 28.2075 22.823L27.0369 21.0628C26.8766 20.8145 26.5962 20.6656 26.3025 20.6656H25.2431C25.1764 20.6656 25.1408 20.7378 25.1719 20.7965L27.2639 23.9424C27.4152 24.168 27.4152 24.4659 27.2639 24.6916L25.1719 27.8375C25.1318 27.8917 25.1764 27.9684 25.2431 27.9684H26.3025C26.5962 27.9684 26.8677 27.8195 27.0369 27.5712L28.2075 25.811C28.3633 25.5808 28.6926 25.5808 28.8484 25.811L30.019 27.5712C30.1793 27.8195 30.4597 27.9684 30.7534 27.9684H31.8128C31.8795 27.9684 31.9152 27.8962 31.884 27.8375L29.792 24.6961C29.6407 24.4705 29.6407 24.1726 29.792 23.9469L31.884 20.801C31.9152 20.7423 31.8751 20.6656 31.8128 20.6656V20.6656ZM24.6912 20.6656H24.0681C23.752 20.6656 23.485 20.8912 23.4182 21.1936C22.8618 20.7603 22.1675 20.5437 21.4153 20.5437C19.5859 20.5437 18.1037 21.8346 18.1037 24.2719C18.1037 26.7092 19.5859 28 21.4153 28C22.163 28 22.8529 27.7834 23.4093 27.3636C23.4405 27.7021 23.7209 27.9729 24.0681 27.9729H24.6912C24.7535 27.9729 24.8025 27.9233 24.8025 27.8601V20.7784C24.798 20.7152 24.7535 20.6656 24.6912 20.6656V20.6656ZM21.4153 26.6144C20.3248 26.6144 19.439 25.8065 19.439 24.2764C19.439 22.7463 20.3248 21.9384 21.4153 21.9384C22.5058 21.9384 23.3915 22.7463 23.3915 24.2764C23.3915 25.8065 22.5058 26.6144 21.4153 26.6144Z" fill="white"/>
<path d="M16.2574 19.5748H14.2627V16.6905H12.9723V19.5748H10.9231V12.1336H12.9678V14.912H14.2582V12.1336H16.2529L16.2574 19.5748ZM25.4085 19.607C27.4531 19.607 29.1207 17.8838 29.1207 15.7828C29.1207 13.6495 27.4531 12 25.4085 12C23.3365 12 22.2915 13.5251 22.037 14.1471C22.037 13.2256 21.1283 12.1244 20.0741 12.1244H16.6664V19.5748H19.8379C21.1283 19.5748 22.037 18.4552 22.037 17.4738C22.3233 18.0819 23.3411 19.607 25.4085 19.607V19.607ZM19.5834 16.5845C19.8788 16.5845 20.115 16.8748 20.115 17.2065C20.115 17.5521 19.8788 17.847 19.5834 17.847H18.5656V16.5845H19.5834ZM19.5834 13.7877C19.8788 13.7877 20.115 14.078 20.115 14.4097C20.115 14.7415 19.8788 15.0318 19.5834 15.0318H18.5656V13.7877H19.5834ZM20.9284 15.7828C21.1646 15.769 21.5508 15.4925 21.6962 15.3266C21.6417 15.5248 21.6417 16.156 21.6962 16.3587C21.5327 16.1145 21.1646 15.8289 20.9284 15.7828ZM23.5455 15.7828C23.5455 14.7323 24.3861 13.8845 25.4221 13.8891C26.4626 13.8983 27.2896 14.7553 27.2759 15.8104C27.2623 16.8471 26.4353 17.6811 25.4085 17.6811C24.377 17.6857 23.5455 16.8379 23.5455 15.7828V15.7828ZM25.4085 17.2756C26.2036 17.2756 26.8715 16.6121 26.8715 15.7828C26.8715 14.9534 26.2036 14.2992 25.4085 14.2992C24.5906 14.2992 23.9363 14.9534 23.9363 15.7828C23.9363 16.6121 24.586 17.2756 25.4085 17.2756Z" fill="white"/>
<defs>
<linearGradient id="paint0_linear_221_851" x1="6" y1="6.5" x2="43.5" y2="42" gradientUnits="userSpaceOnUse">
<stop stop-color="#991EEB"/>
<stop offset="0.399" stop-color="#5822B4"/>
<stop offset="0.727" stop-color="#5822B4"/>
<stop offset="1" stop-color="#991EEB"/>
</linearGradient>
</defs>
</svg>
