<svg width="40" height="40" viewBox="0 0 40 40" fill="none" xmlns="http://www.w3.org/2000/svg">
<rect width="40" height="40" rx="20" fill="#0F0F00"/>
<g clip-path="url(#clip0_221_882)">
<path d="M21.5732 10.0588L21.5653 14.4592L21.5575 18.8596L21.196 17.8381V17.8355L20.7272 27.6316C21.1882 28.9307 21.4344 29.6249 21.437 29.6275C21.4396 29.6301 21.7015 29.6458 22.0185 29.6615C22.9771 29.7087 24.1663 29.8108 25.0699 29.9235C25.2795 29.9496 25.4576 29.9627 25.4707 29.9523C25.4838 29.9418 25.4864 25.4628 25.4838 19.9964L25.4759 10.0588H21.5732V10.0588Z" fill="#B1060F" stroke="black" stroke-width="0.29074"/>
<path d="M14.5142 10.0458V19.9939C14.5142 25.4655 14.5195 29.9471 14.5273 29.955C14.5352 29.9628 14.8731 29.9288 15.2817 29.8843C15.6903 29.8397 16.2534 29.7821 16.5337 29.7585C16.9632 29.7219 18.2519 29.6407 18.3986 29.638C18.4431 29.638 18.4458 29.4154 18.451 25.4236L18.4589 21.2092L18.7705 22.0893C18.8177 22.2255 18.8334 22.2674 18.8806 22.401L19.3494 12.6075C19.2499 12.3272 19.3023 12.4739 19.1896 12.1544C18.8072 11.0726 18.4824 10.1585 18.4693 10.1166L18.4431 10.0432H14.5142V10.0458Z" fill="#B1060F" stroke="black" stroke-width="0.29074"/>
<path d="M21.5732 10.0588L21.5653 14.4592L21.5575 18.8596L21.196 17.8381V17.8355L20.7272 27.6316C21.1882 28.9307 21.4344 29.6249 21.437 29.6275C21.4396 29.6301 21.7015 29.6458 22.0185 29.6615C22.9771 29.7087 24.1663 29.8108 25.0699 29.9235C25.2795 29.9496 25.4576 29.9627 25.4707 29.9523C25.4838 29.9418 25.4864 25.4628 25.4838 19.9964L25.4759 10.0588H21.5732V10.0588Z" fill="#B1060F" stroke="black" stroke-width="0.29074"/>
<path d="M14.5142 10.0458V19.9939C14.5142 25.4655 14.5195 29.9471 14.5273 29.955C14.5352 29.9628 14.8731 29.9288 15.2817 29.8843C15.6903 29.8397 16.2534 29.7821 16.5337 29.7585C16.9632 29.7219 18.2519 29.6407 18.3986 29.638C18.4431 29.638 18.4458 29.4154 18.451 25.4236L18.4589 21.2092L18.7705 22.0893C18.8177 22.2255 18.8334 22.2674 18.8806 22.401L19.3494 12.6075C19.2499 12.3272 19.3023 12.4739 19.1896 12.1544C18.8072 11.0726 18.4824 10.1585 18.4693 10.1166L18.4431 10.0432H14.5142V10.0458Z" fill="#B1060F" stroke="black" stroke-width="0.29074"/>
<path d="M14.5142 10.0458V15.6301L18.4484 26.0653C18.4484 25.827 18.4484 25.696 18.451 25.4236L18.4589 21.2092L18.7705 22.0893C20.4993 26.9926 21.4291 29.6223 21.4344 29.6276C21.437 29.6302 21.6989 29.6459 22.0158 29.6616C22.9745 29.7088 24.1636 29.8109 25.0673 29.9235C25.2768 29.9497 25.4549 29.9628 25.468 29.9524C25.4759 29.9445 25.4811 27.7495 25.4811 24.6509L21.5679 13.3933L21.5653 14.4593L21.5575 18.8597L21.196 17.8382C20.8424 16.8402 20.6067 16.1723 19.1844 12.1544C18.802 11.0726 18.4772 10.1585 18.4641 10.1166L18.4379 10.0432H14.5142V10.0458Z" fill="url(#paint0_radial_221_882)"/>
<path d="M14.5142 10.0458L18.4562 21.2171V21.2118L18.7679 22.0919C20.4993 26.9926 21.4291 29.6223 21.4344 29.6276C21.437 29.6302 21.6989 29.6459 22.0158 29.6616C22.9745 29.7088 24.1637 29.8109 25.0673 29.9235C25.2742 29.9497 25.455 29.9628 25.4654 29.9524L21.5575 18.8571V18.8597L21.196 17.8382C20.8424 16.8402 20.6067 16.1723 19.1844 12.1544C18.802 11.0726 18.4772 10.1585 18.4641 10.1166L18.4379 10.0432H16.4761L14.5142 10.0458Z" fill="#E50914"/>
</g>
<defs>
<radialGradient id="paint0_radial_221_882" cx="0" cy="0" r="1" gradientUnits="userSpaceOnUse" gradientTransform="translate(19.8141 19.8841) rotate(-19.1007) scale(0.722788 26.4767)">
<stop/>
<stop offset="1" stop-opacity="0"/>
</radialGradient>
<clipPath id="clip0_221_882">
<rect width="20" height="20" fill="white" transform="translate(10 10)"/>
</clipPath>
</defs>
</svg>
