<svg width="40" height="40" viewBox="0 0 40 40" fill="none" xmlns="http://www.w3.org/2000/svg">
<rect width="40" height="40" rx="20" fill="url(#paint0_linear_221_867)"/>
<path d="M20.211 29.6978C20.0015 29.6925 19.7919 29.6925 19.5824 29.6978C19.2943 29.6821 19.0061 29.6716 18.718 29.6507C17.9532 29.5933 17.1936 29.4783 16.4497 29.3059C13.8775 28.7103 11.6197 27.5139 9.65 25.7742C9.46665 25.6122 9.29377 25.445 9.11566 25.2778C9.07375 25.2413 9.03708 25.189 9.01613 25.1368C8.9847 25.0636 9.00041 24.9853 9.0528 24.9278C9.10518 24.8703 9.189 24.8494 9.26234 24.8808C9.30949 24.9017 9.35664 24.9226 9.39855 24.9487C11.2792 26.1085 13.3327 26.9549 15.4858 27.4564C16.2087 27.6236 16.9369 27.7542 17.6703 27.8483C18.7233 27.9789 19.7867 28.0259 20.8449 27.9893C21.4159 27.9737 21.9817 27.9214 22.5474 27.8483C23.8676 27.6811 25.172 27.3833 26.4345 26.9653C27.0998 26.7459 27.7494 26.4951 28.3832 26.2026C28.4775 26.1503 28.5928 26.1346 28.6976 26.1608C28.8704 26.2026 28.9752 26.3802 28.9333 26.5526C28.928 26.5735 28.9176 26.5996 28.9071 26.6205C28.8652 26.6989 28.8076 26.7668 28.7342 26.8191C28.1318 27.2893 27.4822 27.702 26.7959 28.0468C25.502 28.6999 24.119 29.1649 22.6941 29.4313C21.8717 29.5776 21.044 29.6664 20.211 29.6978Z" fill="white"/>
<path d="M29.2162 24.6038C29.5619 24.6142 29.9025 24.6351 30.2377 24.7239C30.332 24.75 30.4211 24.7814 30.5101 24.8232C30.6306 24.8702 30.7092 24.9851 30.7249 25.1105C30.7459 25.2568 30.7511 25.4083 30.7406 25.5598C30.6725 26.4532 30.3949 27.3153 29.9339 28.0833C29.7663 28.3602 29.5619 28.6109 29.3262 28.8304C29.2791 28.8774 29.2214 28.914 29.1586 28.9349C29.059 28.961 28.9962 28.9087 28.9909 28.8095C28.9962 28.7572 29.0067 28.705 29.0276 28.6527C29.211 28.1616 29.3891 27.6758 29.5305 27.169C29.6143 26.8921 29.672 26.61 29.7086 26.3226C29.7191 26.2181 29.7243 26.1136 29.7139 26.0091C29.7086 25.8315 29.5934 25.68 29.4205 25.6278C29.2581 25.5755 29.0905 25.5442 28.9176 25.5337C28.4356 25.5128 27.9537 25.5337 27.477 25.5964L26.8431 25.6748C26.775 25.68 26.7121 25.6748 26.6755 25.6121C26.6388 25.5494 26.6545 25.4867 26.6912 25.424C26.7331 25.3665 26.7855 25.3143 26.8483 25.2777C27.236 25.0008 27.6708 24.8336 28.1318 24.7239C28.488 24.6508 28.8495 24.6142 29.2162 24.6038Z" fill="white"/>
<path d="M23.4715 11.2568C23.6025 11.1784 23.7387 11.0948 23.8801 11.0217C24.2468 10.8336 24.6554 10.7395 25.0693 10.7604C25.3679 10.7761 25.6403 10.8597 25.8498 11.0791C26.0489 11.2829 26.1222 11.5337 26.1432 11.8053C26.1484 11.8628 26.1484 11.9203 26.1484 11.983V14.6893C26.1484 14.9244 26.117 14.9557 25.8813 14.9557H25.2422C25.2003 14.9557 25.1583 14.9557 25.1164 14.9505C25.0536 14.9453 25.0012 14.893 24.9907 14.8303C24.9802 14.7728 24.9802 14.7154 24.9802 14.6579V12.239C24.9855 12.1397 24.975 12.0457 24.9488 11.9516C24.9069 11.7897 24.7602 11.6747 24.5926 11.6643C24.2835 11.6434 23.9744 11.7061 23.6915 11.8367C23.6496 11.8471 23.6234 11.8889 23.6287 11.9307V14.6788C23.6287 14.731 23.6287 14.7781 23.6182 14.8303C23.6182 14.9035 23.5606 14.9557 23.4872 14.9557C23.4086 14.9609 23.3301 14.9609 23.2463 14.9609H22.691C22.4971 14.9609 22.4552 14.9139 22.4552 14.7206V12.2494C22.4552 12.1606 22.45 12.0666 22.429 11.9777C22.3924 11.8001 22.2404 11.6747 22.0623 11.6643C21.748 11.6434 21.4285 11.7061 21.1456 11.8419C21.1037 11.8524 21.0775 11.8994 21.0879 11.9412V14.7258C21.0879 14.9191 21.046 14.9609 20.8522 14.9609H20.1502C19.9669 14.9609 19.9197 14.9087 19.9197 14.731V11.1053C19.9197 11.0635 19.925 11.0217 19.9355 10.9799C19.9564 10.9172 20.0193 10.8806 20.0821 10.8806H20.737C20.8313 10.8806 20.8889 10.9381 20.9203 11.0269C20.9465 11.1 20.9622 11.1679 20.9884 11.2463C21.0408 11.2463 21.0722 11.2097 21.1089 11.1888C21.397 11.0112 21.7009 10.8597 22.0414 10.797C22.3033 10.7448 22.5652 10.7448 22.8272 10.797C23.0734 10.8493 23.2934 10.9955 23.4348 11.2045C23.4453 11.2202 23.4558 11.2306 23.4663 11.2411C23.461 11.2463 23.4663 11.2463 23.4715 11.2568Z" fill="white"/>
<path d="M15.7289 11.4554C15.7656 11.4449 15.797 11.424 15.8179 11.3927C15.9122 11.2987 16.0118 11.2098 16.1165 11.1263C16.3889 10.9173 16.7295 10.8128 17.07 10.8389C17.2062 10.8441 17.2533 10.8859 17.2638 11.0165C17.2743 11.1942 17.269 11.377 17.269 11.5547C17.2743 11.6278 17.269 11.6957 17.2586 11.7689C17.2376 11.8629 17.2009 11.8995 17.1066 11.9099C17.0333 11.9152 16.9652 11.9099 16.8918 11.9047C16.5409 11.8734 16.2004 11.9413 15.8703 12.051C15.797 12.0771 15.797 12.1294 15.797 12.1868V14.6946C15.797 14.7416 15.797 14.7834 15.7917 14.8304C15.7865 14.8983 15.7341 14.9506 15.666 14.9506C15.6293 14.9558 15.5874 14.9558 15.5508 14.9558H14.8697C14.8331 14.9558 14.7912 14.9558 14.7545 14.9506C14.6864 14.9454 14.634 14.8879 14.6288 14.82C14.6235 14.7782 14.6235 14.7364 14.6235 14.6946V11.1419C14.6235 10.9016 14.6497 10.8755 14.8907 10.8755H15.3936C15.5298 10.8755 15.5927 10.9225 15.6293 11.0531C15.666 11.1837 15.6974 11.3143 15.7289 11.4554Z" fill="white"/>
<path d="M17.7719 12.9078V11.0531C17.7771 10.9277 17.8243 10.8807 17.95 10.8755C18.2224 10.8703 18.4948 10.8703 18.7672 10.8755C18.8877 10.8755 18.9244 10.9121 18.9349 11.0322C18.9401 11.0793 18.9401 11.1211 18.9401 11.1681V14.6476C18.9401 14.7051 18.9349 14.7625 18.9296 14.82C18.9244 14.8879 18.872 14.9349 18.8039 14.9402C18.7725 14.9454 18.7463 14.9454 18.7148 14.9454H17.9867C17.9605 14.9454 17.9395 14.9454 17.9133 14.9402C17.84 14.9349 17.7771 14.8775 17.7719 14.8043C17.7667 14.7625 17.7667 14.7207 17.7667 14.6789C17.7719 14.099 17.7719 13.5034 17.7719 12.9078Z" fill="white"/>
<path d="M18.3796 9.00515C18.4634 8.99993 18.5472 9.0156 18.6258 9.04172C18.9087 9.13576 19.0554 9.38131 19.0292 9.70001C19.0082 9.97168 18.8039 10.1911 18.5315 10.2329C18.4162 10.2538 18.2958 10.2538 18.1805 10.2329C17.8819 10.1754 17.6619 9.95601 17.6828 9.57985C17.7143 9.20891 17.9605 9.00515 18.3796 9.00515Z" fill="white"/>
<path d="M13.8482 12.4794C13.8273 12.2077 13.7539 11.9413 13.6439 11.6957C13.4291 11.2464 13.0991 10.9173 12.5962 10.8023C12.0199 10.6769 11.5013 10.8023 11.0298 11.1524C10.9984 11.1837 10.9617 11.2098 10.9198 11.2307C10.9094 11.2255 10.8989 11.2203 10.8989 11.2151C10.8832 11.1628 10.8727 11.1106 10.857 11.0583C10.8151 10.9277 10.7627 10.8807 10.6212 10.8807C10.4641 10.8807 10.3017 10.8859 10.1445 10.8807C10.024 10.8755 9.91402 10.8911 9.8302 10.9852C9.8302 12.8138 9.8302 14.6475 9.83544 16.4709C9.90354 16.5806 10.0083 16.6015 10.1288 16.5963C10.3174 16.5911 10.506 16.5963 10.6946 16.5963C11.0246 16.5963 11.0246 16.5963 11.0246 16.2724V14.7834C11.0246 14.7468 11.0089 14.705 11.0456 14.6737C11.3075 14.8774 11.627 15.0028 11.9571 15.0342C12.4181 15.0812 12.8372 14.9662 13.1881 14.6528C13.4448 14.4177 13.6334 14.1147 13.733 13.7803C13.8744 13.3519 13.8849 12.9182 13.8482 12.4794ZM12.5962 13.5609C12.5595 13.7228 12.4757 13.8691 12.3552 13.9788C12.219 14.0938 12.0514 14.1617 11.8733 14.1617C11.6061 14.1773 11.3442 14.1199 11.1084 13.9945C11.0508 13.9684 11.0141 13.9109 11.0194 13.8482V12.9026C11.0194 12.5891 11.0246 12.2756 11.0194 11.9622C11.0141 11.889 11.056 11.8263 11.1241 11.8002C11.4123 11.6644 11.7109 11.6017 12.0252 11.6644C12.2452 11.6957 12.4338 11.8368 12.5228 12.0405C12.6014 12.2077 12.6486 12.3906 12.659 12.5734C12.6905 12.9078 12.6905 13.2422 12.5962 13.5609Z" fill="white"/>
<path d="M28.0606 13.2474C28.4535 13.3205 28.8568 13.3257 29.2497 13.263C29.4802 13.2317 29.7002 13.1638 29.9045 13.0541C30.1403 12.9182 30.3132 12.7301 30.3865 12.4689C30.5698 11.8106 30.287 11.1471 29.6007 10.9016C29.2654 10.7919 28.9092 10.7553 28.5582 10.8023C27.7305 10.8963 27.1909 11.3509 26.9447 12.1398C26.7719 12.6779 26.7928 13.2265 26.9343 13.7698C27.1176 14.4647 27.5786 14.8774 28.2753 15.0237C28.6735 15.1125 29.0768 15.0968 29.475 15.0341C29.6845 14.9976 29.8941 14.9453 30.0931 14.867C30.2136 14.8199 30.2765 14.7468 30.2712 14.611C30.266 14.4856 30.2712 14.355 30.2712 14.2243C30.2712 14.0676 30.2084 14.0206 30.0565 14.0572C29.9045 14.0937 29.7579 14.1251 29.6059 14.1564C29.2812 14.2243 28.9459 14.2243 28.6211 14.1669C28.1758 14.0781 27.8877 13.6967 27.9139 13.2265C27.961 13.2317 28.0134 13.2369 28.0606 13.2474ZM27.9296 12.448C27.9453 12.3226 27.982 12.2025 28.0291 12.0875C28.1863 11.7061 28.5163 11.5755 28.8516 11.5964C28.9459 11.6016 29.0402 11.6225 29.1292 11.6591C29.2654 11.7166 29.3545 11.842 29.3702 11.9883C29.3859 12.0771 29.3807 12.1711 29.3545 12.2599C29.2916 12.448 29.1397 12.5264 28.9564 12.563C28.8463 12.5891 28.7311 12.5995 28.6158 12.5891C28.4115 12.5891 28.202 12.5734 27.9977 12.5421C27.9191 12.5316 27.9191 12.5316 27.9296 12.448Z" fill="white"/>
<path d="M12.3076 21.7428C12.339 21.6383 12.3704 21.5391 12.4019 21.4346C12.6428 20.6248 12.8838 19.8202 13.1248 19.0104L13.1562 18.9164C13.1824 18.8223 13.2715 18.7649 13.3658 18.7649H14.162C14.3611 18.7649 14.403 18.8223 14.3349 19.0104L14.0206 19.8411C13.6696 20.7502 13.3186 21.6645 12.9676 22.5735C12.9571 22.6049 12.9414 22.6362 12.931 22.6676C12.8943 22.7773 12.7843 22.8504 12.669 22.84C12.4385 22.8348 12.208 22.8348 11.9775 22.84C11.8151 22.8452 11.7208 22.7721 11.6632 22.6258C11.5322 22.281 11.396 21.9309 11.2651 21.5861C10.9508 20.7659 10.6312 19.9456 10.3169 19.1201C10.2855 19.0574 10.2645 18.9843 10.2488 18.9164C10.2331 18.8119 10.2697 18.7596 10.3745 18.7596C10.6731 18.7544 10.9717 18.7596 11.2651 18.7596C11.3908 18.7596 11.4484 18.8432 11.4799 18.953C11.5375 19.1515 11.5951 19.3552 11.658 19.5538C11.8728 20.28 12.0823 21.0114 12.2971 21.7376C12.2918 21.7428 12.2971 21.7428 12.3076 21.7428Z" fill="white"/>
<path d="M16.0165 20.8024V22.6833C16.006 22.7878 15.9588 22.8348 15.8541 22.84C15.5712 22.8452 15.2935 22.8452 15.0107 22.84C14.9059 22.84 14.8587 22.7878 14.8483 22.6885C14.843 22.6571 14.843 22.6206 14.843 22.5892V18.9739C14.8483 18.8119 14.8902 18.7649 15.0526 18.7649H15.8069C15.9693 18.7649 16.0165 18.8119 16.0165 18.9739V20.8024Z" fill="white"/>
<path d="M15.435 16.8894C15.5398 16.8789 15.6446 16.8998 15.7441 16.9416C15.9484 17.02 16.0899 17.2081 16.1003 17.4275C16.1422 17.9029 15.8227 18.1433 15.3984 18.1328C15.3407 18.1328 15.2831 18.1224 15.2255 18.1119C14.9007 18.0335 14.7331 17.7828 14.7645 17.4223C14.7907 17.1349 15.0159 16.9207 15.325 16.8946C15.3617 16.8894 15.3984 16.8842 15.435 16.8894Z" fill="white"/>
<path d="M29.7259 20.4786V20.4995C29.705 20.4786 29.6945 20.4472 29.705 20.4211V20.3793C29.705 20.3793 29.705 20.3741 29.7102 20.3741H29.705V20.3218H29.7154C29.7154 20.3166 29.7102 20.3166 29.7102 20.3114C29.6997 20.2121 29.6788 20.1129 29.6526 20.0188C29.4587 19.3292 29.0239 18.8747 28.3167 18.697C27.9867 18.6187 27.6514 18.6082 27.3162 18.6605C26.6089 18.7649 26.1008 19.1411 25.8546 19.8098C25.6136 20.4472 25.6189 21.1473 25.8598 21.7847C26.0694 22.3646 26.4885 22.7303 27.0909 22.8818C27.4105 22.9602 27.7457 22.9811 28.0758 22.9341C29.1759 22.8035 29.6316 21.9728 29.705 21.2518H29.6997V21.1787C29.6945 21.1473 29.6892 21.1212 29.7207 21.1003V21.1107C29.7207 21.1055 29.7259 21.0951 29.7311 21.0898V20.489C29.7311 20.4838 29.7259 20.4838 29.7259 20.4786ZM28.4686 21.4712C28.4372 21.5809 28.3901 21.6802 28.322 21.7743C28.2067 21.9362 28.0234 22.0407 27.8243 22.0564C27.7248 22.0668 27.6252 22.0668 27.5257 22.0459C27.3057 22.0041 27.1223 21.8578 27.0333 21.6541C26.9547 21.4921 26.9075 21.3145 26.8918 21.1369C26.8656 20.8286 26.8604 20.5204 26.9337 20.2174C26.9599 20.0972 27.0123 19.977 27.0752 19.8725C27.1904 19.6845 27.3895 19.5643 27.6095 19.5486C27.709 19.5382 27.8086 19.5382 27.9081 19.5591C28.1177 19.6009 28.2905 19.7367 28.3848 19.93C28.4739 20.1129 28.5263 20.3166 28.5367 20.5204C28.542 20.6144 28.5472 20.7085 28.542 20.8025C28.5577 21.0324 28.5315 21.257 28.4686 21.4712Z" fill="white"/>
<path d="M20.5427 16.926H19.8145C19.6154 16.926 19.5788 16.9626 19.5788 17.1611V18.8539C19.5788 18.8904 19.5945 18.927 19.5683 18.9636C19.5211 18.9584 19.4949 18.927 19.4583 18.9061C18.9135 18.5874 18.3425 18.5299 17.7662 18.7964C17.3628 18.9845 17.1114 19.3241 16.949 19.7264C16.7918 20.113 16.7552 20.5205 16.7656 20.9332C16.7656 21.3198 16.8547 21.7012 17.0276 22.046C17.2266 22.4274 17.5148 22.72 17.9338 22.8454C18.5049 23.023 19.0392 22.9342 19.5264 22.5737C19.5631 22.5528 19.584 22.5162 19.6312 22.5058C19.6573 22.5633 19.6783 22.6259 19.6888 22.6886C19.7097 22.7722 19.7831 22.8297 19.8721 22.8297H19.9979C20.1864 22.8297 20.3698 22.8349 20.5531 22.8297C20.6998 22.8297 20.7417 22.7827 20.747 22.6312V17.1246C20.7417 16.9626 20.6998 16.926 20.5427 16.926ZM19.584 20.7713V21.7221C19.5945 21.7848 19.5578 21.8423 19.5002 21.8684C19.2487 22.0095 18.9606 22.0669 18.6777 22.0251C18.4367 21.999 18.2272 21.8527 18.1172 21.6385C18.0334 21.4713 17.9862 21.2937 17.9705 21.1108C17.9286 20.7817 17.9548 20.4473 18.0334 20.1286C18.0596 20.0398 18.091 19.9562 18.1381 19.8726C18.2482 19.6689 18.4577 19.5383 18.6882 19.5226C18.9658 19.4965 19.2435 19.5487 19.4949 19.6637C19.5578 19.6846 19.5945 19.7473 19.5892 19.8152C19.5788 20.1391 19.584 20.4526 19.584 20.7713Z" fill="white"/>
<path d="M23.7068 21.184C24.0106 21.1631 24.3144 21.1057 24.5868 20.9594C24.8645 20.8235 25.0583 20.5675 25.1159 20.2645C25.1526 20.0764 25.1526 19.8779 25.1107 19.6898C25.0007 19.2196 24.7021 18.927 24.2516 18.7755C24.0001 18.6972 23.7329 18.6658 23.471 18.6763C22.5909 18.6972 21.9204 19.1412 21.648 20.019C21.4646 20.5989 21.4908 21.1892 21.6689 21.7692C21.8523 22.3648 22.2714 22.7252 22.8686 22.8872C23.1253 22.9499 23.3924 22.976 23.6544 22.9656C24.0368 22.9603 24.4192 22.8872 24.7807 22.7514C24.9326 22.6939 24.9693 22.6417 24.9693 22.4797V22.1035C24.964 21.952 24.9012 21.8998 24.7492 21.9363C24.634 21.9677 24.524 21.9938 24.4087 22.0199C24.0577 22.1035 23.691 22.1192 23.3348 22.0565C22.9786 21.9886 22.7376 21.7848 22.6433 21.4296C22.6171 21.3251 22.5962 21.2206 22.5857 21.1109C22.6119 21.1109 22.6381 21.1109 22.659 21.1213C23.0048 21.184 23.3558 21.2101 23.7068 21.184ZM22.6119 20.3481C22.6486 20.1443 22.6957 19.9458 22.8214 19.7786C23.0153 19.5226 23.2824 19.4495 23.5863 19.4808C23.6125 19.4808 23.6334 19.4913 23.6596 19.4913C24.0263 19.5488 24.1154 19.8413 24.0473 20.1235C23.9949 20.3324 23.822 20.4108 23.6282 20.4474C23.5234 20.4683 23.4134 20.4787 23.3034 20.4735C23.0886 20.4683 22.8791 20.4526 22.6695 20.4212C22.6224 20.416 22.6014 20.3951 22.6119 20.3481Z" fill="white"/>
<defs>
<linearGradient id="paint0_linear_221_867" x1="5" y1="34.5" x2="55.5" y2="5.73788e-07" gradientUnits="userSpaceOnUse">
<stop stop-color="#002764"/>
<stop offset="1" stop-color="#24BFEA"/>
</linearGradient>
</defs>
</svg>
