<svg width="40" height="40" viewBox="0 0 40 40" fill="none" xmlns="http://www.w3.org/2000/svg">
<rect width="40" height="40" rx="20" fill="#271F44"/>
<path d="M32.1202 19.131V16.9312H33.6746V19.131H36V20.5976H33.6746V22.7916H32.1202V20.5976H29.7885V19.131H32.1202Z" fill="white"/>
<path d="M25.1811 17.5308H26.1587C26.7473 17.5308 27.1238 17.8306 27.1238 18.3539C27.1238 18.9239 26.7473 19.295 26.1587 19.295H25.1811V17.5308ZM26.8645 20.4424C27.877 20.3146 28.7125 19.4571 28.7125 18.3662C28.7125 16.951 27.7349 16.1746 26.1587 16.1746H23.6149V23.2974H25.1811V20.4424L27.1238 23.295H28.9369L26.8645 20.4424Z" fill="white"/>
<path d="M14.2077 17.5775V16.1746H9.43927V17.5775H11.0279V23.295H12.619V17.5775H14.2077Z" fill="white"/>
<path d="M6.49644 18.796C6.02508 18.5872 5.84801 18.3562 5.84801 18.054C5.84801 17.7051 6.1423 17.4152 6.61365 17.4275C7.02515 17.4373 7.34438 17.6584 7.56883 18.1818L8.92304 17.5896C8.54646 16.6388 7.78082 16.0835 6.54632 16.0835C5.23949 16.0835 4.27433 16.9312 4.27433 18.0663C4.27433 18.8427 4.66339 19.457 5.58116 19.9115L6.5937 20.4103C7.15733 20.6904 7.42917 20.8968 7.42917 21.3022C7.42917 21.742 7.06506 22.0565 6.5937 22.0565C6.08743 22.0565 5.62854 21.7764 5.41656 21.1523L4 21.5577C4.3292 22.7297 5.30683 23.4152 6.57874 23.4152C7.95539 23.4152 9.01532 22.5454 9.01532 21.2923C9.01532 20.3292 8.4866 19.6904 7.47157 19.2407L6.49644 18.796Z" fill="white"/>
<path d="M23.1909 18.4349H19.5223L18.3876 15L17.2528 18.4349H13.5842L16.5271 20.5627C16.5271 20.5627 17.9661 19.629 19.7094 19.2776C17.1381 21.1474 15.7415 23.0025 15.7415 23.0025L15.4198 24L18.3876 21.8771L21.3554 24L20.2231 20.5627L23.1909 18.4349Z" fill="url(#paint0_linear_221_842)"/>
<defs>
<linearGradient id="paint0_linear_221_842" x1="15.0307" y1="23.6199" x2="21.6596" y2="16.8974" gradientUnits="userSpaceOnUse">
<stop offset="0.28" stop-color="#FA1660"/>
<stop offset="0.78" stop-color="#FF7D17"/>
</linearGradient>
</defs>
</svg>
