<svg width="40" height="40" viewBox="0 0 40 40" fill="none" xmlns="http://www.w3.org/2000/svg">
<rect width="40" height="40" rx="20" fill="url(#paint0_linear_221_933)"/>
<path d="M17.9154 20.8745L18.6648 19.4754L19.4142 20.8745H17.9154ZM16.88 22.8135L17.3567 21.9217H19.974L20.4507 22.8135H21.7334L18.6654 17.0737L15.6147 22.8135H16.88Z" fill="white"/>
<path d="M16.6934 17.0981H11.8793V18.1454H13.6733V22.8134H14.8994V18.1454H16.6934V17.0981Z" fill="white"/>
<path d="M24.1467 19.61H23.25V18.1454H24.1467C24.8054 18.1454 25.1694 18.3991 25.1694 18.8736C25.1694 19.3481 24.788 19.61 24.1467 19.61ZM26.4087 18.8452C26.4087 18.3423 26.2134 17.9087 25.8494 17.5972C25.4727 17.27 24.9354 17.0981 24.2981 17.0981H22.0187V22.8129H23.2494V20.7309H24.1247L25.3941 22.8129H26.8068L25.3681 20.4483C26.2746 20.048 26.4087 19.2707 26.4087 18.8452Z" fill="white"/>
<path d="M32.3413 17.0981H27.3407V18.1454H30.2007L27.0934 22.8134H32.2761V21.7661H29.2341L32.3413 17.0981Z" fill="white"/>
<path d="M9.70862 19.43C8.71658 19.2091 8.36529 19.0575 8.36529 18.6238C8.36529 18.2638 8.71658 18.0347 9.24062 18.0347C10.042 18.0347 10.7613 18.5584 10.952 18.7138L11.468 17.7282C10.8307 17.2455 10.0986 17 9.25796 17C8.01862 17 7.15196 17.6993 7.15196 18.7018C7.15196 19.7938 7.89729 20.1702 9.18862 20.4647C10.2679 20.6976 10.458 20.9022 10.458 21.2376C10.458 21.6385 10.0813 21.8758 9.496 21.8758C8.77667 21.8758 8.18329 21.614 7.50729 21.0211L7 22.0444C7.702 22.6127 8.56 22.9116 9.47 22.9116C10.8047 22.9116 11.6713 22.2325 11.6713 21.1444C11.6667 20.2525 11.0993 19.7491 9.70862 19.43Z" fill="white"/>
<defs>
<linearGradient id="paint0_linear_221_933" x1="4.5" y1="33.5" x2="69.5" y2="-27.5" gradientUnits="userSpaceOnUse">
<stop stop-color="#0F0F00"/>
<stop offset="0.135938"/>
<stop offset="0.985621" stop-color="white"/>
</linearGradient>
</defs>
</svg>
