<svg width="40" height="40" viewBox="0 0 40 40" fill="none" xmlns="http://www.w3.org/2000/svg">
<rect width="40" height="40" rx="20" fill="#040535"/>
<path fill-rule="evenodd" clip-rule="evenodd" d="M11.9976 18.5845C12.1195 18.5845 12.2025 18.5008 12.2025 18.3778V13.5351H13.5823C13.7042 13.5351 13.7873 13.4514 13.7873 13.3285V12.2895C13.7873 12.1666 13.7042 12.0828 13.5823 12.0828H9.22701C9.10509 12.0828 9.02197 12.1666 9.02197 12.2895V13.3285C9.02197 13.4513 9.10509 13.5351 9.22701 13.5351H10.6068V18.3778C10.5957 18.5007 10.6789 18.5845 10.8007 18.5845H11.9977H11.9976ZM15.544 18.5845H19.4116C19.5335 18.5845 19.6167 18.5008 19.6167 18.3778V17.4003C19.6167 17.2774 19.5335 17.1937 19.4116 17.1937H16.8792V15.9872H18.9238C19.0457 15.9872 19.1288 15.9034 19.1288 15.7806V14.8031C19.1288 14.6802 19.0458 14.5963 18.9238 14.5963H16.8793V13.4736H19.3728C19.4947 13.4736 19.5778 13.3899 19.5778 13.267V12.2895C19.5778 12.1666 19.4947 12.0828 19.3728 12.0828H15.544C15.422 12.0828 15.3389 12.1666 15.3389 12.2895V18.3778C15.3389 18.5007 15.422 18.5845 15.544 18.5845V18.5845ZM21.495 18.5845H25.0801C25.202 18.5845 25.2851 18.5008 25.2851 18.3778V17.3165C25.2851 17.1936 25.2021 17.1099 25.0801 17.1099H22.8915V12.2895C22.8915 12.1666 22.8083 12.0828 22.6864 12.0828H21.495C21.3731 12.0828 21.2899 12.1666 21.2899 12.2895V18.3778C21.2956 18.5007 21.3787 18.5845 21.495 18.5845" fill="white"/>
<path fill-rule="evenodd" clip-rule="evenodd" d="M26.8405 26.8613H30.6915C30.8134 26.8613 30.8966 26.7776 30.8966 26.6547V25.6772C30.8966 25.5543 30.8135 25.4706 30.6915 25.4706H28.1815V24.264H30.2096C30.3315 24.264 30.4146 24.1802 30.4146 24.0573V23.0799C30.4146 22.957 30.3314 22.8732 30.2096 22.8732H28.1814V21.7505H30.6528C30.7747 21.7505 30.8578 21.6667 30.8578 21.5439V20.5663C30.8578 20.4434 30.7747 20.3596 30.6528 20.3596H26.846C26.7242 20.3596 26.6409 20.4434 26.6409 20.5663V26.6547C26.6354 26.7831 26.7185 26.8613 26.8404 26.8613" fill="#E82835"/>
<path fill-rule="evenodd" clip-rule="evenodd" d="M20.6399 26.8613C20.7619 26.8613 20.8451 26.7776 20.8451 26.6546V23.4094L24.2307 26.7384C24.3303 26.839 24.4135 26.8613 24.5355 26.8613H24.7791C24.901 26.8613 24.9843 26.7776 24.9843 26.6546V20.5663C24.9843 20.4434 24.9011 20.3596 24.7791 20.3596H23.66C23.5381 20.3596 23.4549 20.4434 23.4549 20.5663V23.8396L20.1524 20.4881C20.0527 20.3876 19.9695 20.3652 19.8476 20.3652H19.5207C19.3988 20.3652 19.3157 20.449 19.3157 20.5719V26.6602C19.3212 26.8 19.4043 26.8613 19.5263 26.8613H20.6399ZM16.2459 26.8613H17.4428C17.5647 26.8613 17.6478 26.7776 17.6478 26.6546V20.5663C17.6478 20.4434 17.5647 20.3596 17.4428 20.3596H16.2459C16.124 20.3596 16.0409 20.4434 16.0409 20.5663V26.6546C16.0409 26.7831 16.124 26.8613 16.2459 26.8613V26.8613ZM12.3726 26.9618C13.3036 26.9618 14.1569 26.515 14.6998 25.9844C14.7996 25.8839 14.8439 25.7777 14.6998 25.6604L14.0295 24.9678C13.9463 24.884 13.8466 24.884 13.7469 24.9901C13.3201 25.3363 12.9157 25.4985 12.428 25.4985C11.4363 25.4985 10.6882 24.761 10.6882 23.5993C10.6882 22.4152 11.4584 21.7393 12.428 21.7393C12.8714 21.7393 13.237 21.8622 13.6637 22.2085C13.7635 22.2923 13.8466 22.2923 13.9463 22.186L14.5947 21.5103C14.6943 21.4098 14.7166 21.3037 14.5947 21.1862C14.046 20.6556 13.2593 20.2646 12.406 20.2646C10.605 20.2646 9.10339 21.6946 9.10339 23.616C9.11451 25.5933 10.4721 26.9618 12.3726 26.9618" fill="#E82835"/>
<path fill-rule="evenodd" clip-rule="evenodd" d="M26.922 18.553H30.7731C30.895 18.553 30.978 18.4693 30.978 18.3463V17.3688C30.978 17.2459 30.895 17.1622 30.7731 17.1622H28.2629V15.9557H30.291C30.4129 15.9557 30.496 15.8719 30.496 15.7491V14.7716C30.496 14.6487 30.4129 14.5648 30.291 14.5648H28.2629V13.4421H30.7342C30.8562 13.4421 30.9393 13.3584 30.9393 13.2355V12.258C30.9393 12.1351 30.8561 12.0513 30.7343 12.0513H26.9275C26.8056 12.0513 26.7225 12.1351 26.7225 12.258V18.3463C26.7169 18.4692 26.8001 18.553 26.922 18.553" fill="white"/>
</svg>
